<svg
  xmlns="http://www.w3.org/2000/svg"
  width="43"
  height="15"
  fill="none"
  viewBox="0 0 43 15"
>
  <path
    fill="#1A1A1A"
    fill-rule="evenodd"
    d="M7.407 0h28.186a7.48 7.48 0 0 1 5.243 2.225 7.507 7.507 0 0 1 0 10.55A7.48 7.48 0 0 1 35.593 15H7.407a7.48 7.48 0 0 1-5.242-2.225 7.507 7.507 0 0 1 0-10.55A7.48 7.48 0 0 1 7.407 0m.37 8.872h2.434V8.87c1.811 0 3.277-1.385 3.277-3.094S12.022 2.68 10.211 2.68h-4.26v4.544L2.565 7.22V8.87h3.386v3.453h1.825zm6.932 3.45h6.406v-1.64h-4.581v-8h-1.825zm10.97.204c2.5 0 4.028-1.354 4.028-3.831V2.68h-1.825v6.02c0 1.475-.797 2.234-2.203 2.234s-2.203-.759-2.203-2.234V2.68h-1.825v6.014c0 2.45 1.555 3.83 4.028 3.83m5-3.384c.014 2.205 1.527 3.397 4.122 3.397l.004-.004c2.432 0 3.892-1.069 3.885-2.966 0-1.557-.932-2.413-3.189-2.856l-.838-.163c-1.419-.282-1.878-.647-1.878-1.42 0-.746.595-1.19 1.73-1.19 1.463 0 2.057.528 2.125 1.61h1.772c-.068-1.908-1.325-3.085-3.919-3.085-2.257 0-3.568 1.082-3.568 2.72 0 1.56 1.027 2.535 3.095 2.928l.81.162c1.474.311 1.974.636 1.974 1.394 0 .907-.693 1.394-1.949 1.394-1.473 0-2.364-.502-2.379-1.921zM7.776 4.319h2.346c.853 0 1.544.648 1.544 1.453s-.69 1.456-1.544 1.456H7.776z"
    clip-rule="evenodd"
  />
</svg>
