<svg xmlns="http://www.w3.org/2000/svg" viewBox="0 0 400 400"><path d="M126.16 359.66c148 0 228.93-122.61 228.93-228.94.0-3.48.0-6.94-.23-10.4A163.83 163.83.0 00395 78.68a160.93 160.93.0 01-46.21 12.66 80.82 80.82.0 0035.37-44.51 161.17 161.17.0 01-51.09 19.53A80.54 80.54.0 00196 139.74 228.42 228.42.0 0130.13 55.68 80.52 80.52.0 0055 163.09 80 80 0 0118.52 153v1a80.49 80.49.0 0064.55 78.87 80.37 80.37.0 01-36.33 1.38 80.55 80.55.0 0075.17 55.87A161.38 161.38.0 0122 324.67a163.54 163.54.0 01-19.16-1.16 227.73 227.73.0 00123.33 36.08" fill="#1da1f2"/></svg>